<svg xmlns="http://www.w3.org/2000/svg" viewBox="0 0 400 300" width="400" height="300">
  <defs>
    <linearGradient id="bgS" x1="0" y1="0" x2="1" y2="1">
      <stop offset="0%" stop-color="#EEF2FF"/>
      <stop offset="50%" stop-color="#ECFEFF"/>
      <stop offset="100%" stop-color="#FDF2F8"/>
    </linearGradient>
    <linearGradient id="rack" x1="0" y1="0" x2="1" y2="0">
      <stop offset="0%" stop-color="#8B5CF6"/>
      <stop offset="100%" stop-color="#6366F1"/>
    </linearGradient>
  </defs>
  <rect width="400" height="300" fill="url(#bgS)"/>
  <rect x="120" y="55" width="160" height="190" rx="8" fill="#94A3B8"/>
  <rect x="130" y="65" width="140" height="170" rx="4" fill="#F1F5F9"/>
  <!-- server units -->
  <rect x="140" y="78" width="120" height="28" rx="3" fill="url(#rack)"/>
  <circle cx="150" cy="92" r="4" fill="#22D3EE"/>
  <rect x="165" y="88" width="80" height="8" rx="2" fill="white" opacity="0.5"/>

  <rect x="140" y="114" width="120" height="28" rx="3" fill="url(#rack)"/>
  <circle cx="150" cy="128" r="4" fill="#22D3EE"/>
  <rect x="165" y="124" width="80" height="8" rx="2" fill="white" opacity="0.5"/>

  <rect x="140" y="150" width="120" height="28" rx="3" fill="url(#rack)"/>
  <circle cx="150" cy="164" r="4" fill="#F472B6"/>
  <rect x="165" y="160" width="80" height="8" rx="2" fill="white" opacity="0.5"/>

  <rect x="140" y="186" width="120" height="28" rx="3" fill="url(#rack)"/>
  <circle cx="150" cy="200" r="4" fill="#22D3EE"/>
  <rect x="165" y="196" width="80" height="8" rx="2" fill="white" opacity="0.5"/>
</svg>
